<?xml version="1.0" encoding="UTF-8"?>
<svg width="48" height="32" fill="none" version="1.1" viewBox="0 0 48 32" xmlns="http://www.w3.org/2000/svg">
 <path d="m0 32v-32h48v32zm19.698-23.667c0.01563-0.0078 0.03064-0.016207 0.04626-0.024011-0.11826-0.37348-0.23643-0.74696-0.35408-1.1198 0.33243-0.24378 0.64157-0.47135 0.9506-0.69831-0.0066-0.021626-0.01379-0.042634-0.02042-0.06425h-1.1756c-0.13144-0.3975-0.25266-0.76437-0.39431-1.1931-0.14584 0.43893-0.27003 0.8136-0.39789 1.1979h-1.1691c-0.0054 0.021616-0.01134 0.043232-0.01675 0.064849 0.31568 0.23237 0.63186 0.46415 0.93855 0.68991-0.10202 0.4041-0.25746 0.75416-0.35285 1.184 0.37205-0.2654 0.68528-0.48997 0.99983-0.71393 0.3312 0.23718 0.6385 0.45754 0.94632 0.67791zm-3.8378 3.8447c0.01501-0.0084 0.03003-0.01672 0.04443-0.02519-0.11397-0.36688-0.22744-0.73375-0.34264-1.1048 0.28749-0.28347 0.66015-0.44554 0.97695-0.77643h-1.229c-0.069651-0.20955-0.13144-0.3981-0.19445-0.58664-0.060051-0.17833-0.12184-0.35607-0.20528-0.60044-0.14635 0.44433-0.26757 0.81121-0.39605 1.1997h-1.166c-6e-3 0.01801-0.01205 0.03543-0.01808 0.0534 0.31506 0.23361 0.63013 0.46722 0.93559 0.6936-0.09304 0.40104-0.25624 0.75048-0.34448 1.1793 0.36674-0.26241 0.68058-0.48704 0.99442-0.71218 0.33069 0.23836 0.63799 0.45875 0.94458 0.67966zm14.027-4.9812c0.30842-0.26899 0.66312-0.44493 0.99135-0.77337h-1.2416c-0.12725-0.38789-0.24786-0.75477-0.39074-1.1889-0.14584 0.43833-0.27003 0.8118-0.40024 1.2045h-1.1666c-0.0073 0.018612-0.01389 0.037224-0.02104 0.055847 0.31445 0.23177 0.6289 0.46294 0.94397 0.69531-0.12 0.38969-0.23224 0.75296-0.34386 1.1156 0.01624 0.0078 0.03237 0.016207 0.04861 0.024011 0.31322-0.22516 0.62594-0.45033 0.93917-0.6755 0.33488 0.23898 0.64279 0.45934 0.95122 0.67971 0.01205-0.012615 0.024-0.025229 0.03656-0.037833-0.11336-0.35907-0.22621-0.71813-0.34621-1.0994zm5.2205 9.0584c0.32109-0.2366 0.63677-0.46959 0.95234-0.70258-0.0078-0.02158-0.01501-0.04325-0.02278-0.06483h-1.178c-0.13021-0.39268-0.25021-0.75481-0.37032-1.1162-0.01614 0.0011-0.03176 0.0024-0.048 3e-3 -0.12419 0.37348-0.24899 0.74697-0.37563 1.1276h-1.1858c-0.0073 0.01507-0.0144 0.03066-0.02165 0.04573 0.31864 0.23113 0.63738 0.46226 0.96919 0.70309-0.11939 0.37947-0.23408 0.74635-0.34928 1.1126 0.0144 0.01146 0.02941 0.02281 0.04381 0.03427 0.30965-0.22401 0.6193-0.44801 0.94284-0.68152 0.32405 0.23299 0.63493 0.45627 0.94519 0.67966 0.01491-0.01084 0.02992-0.02157 0.04494-0.03179-0.11459-0.36626-0.22866-0.732-0.34683-1.109zm-20.958 0.01074c0.32712-0.23898 0.63615-0.46474 0.94519-0.6905-0.0066-0.01982-0.01379-0.03964-0.02043-0.05946h-1.1516c-0.18301-0.3771-0.23346-0.77453-0.42608-1.1774-0.1392 0.42448-0.25992 0.79136-0.38706 1.1793h-1.1649c-0.0084 0.01982-0.01624 0.04016-0.02461 0.05998 0.31568 0.22938 0.63197 0.45937 0.93079 0.67615-0.06842 0.41426-0.25746 0.7512-0.32701 1.1847 0.35878-0.25818 0.66485-0.47795 0.98359-0.70733 0.32282 0.23299 0.63544 0.45813 1.0112 0.729-0.1344-0.43542-0.24725-0.80168-0.36848-1.1955zm8.2067 9.7363c0.336 0.31103 0.69488 0.48941 0.98717 0.75719-0.07323 0.37286-0.26288 0.7097-0.31088 1.145 0.34805-0.24558 0.65239-0.4605 0.96378-0.68028 0.32405 0.23123 0.62952 0.44853 0.93498 0.66593 0.01501-0.0085 0.03003-0.01745 0.04504-0.02581-0.11224-0.36626-0.22386-0.73262-0.3361-1.0995 0.30312-0.27614 0.65903-0.4539 0.91884-0.77092h-1.1708c-0.06485-0.19572-0.12368-0.37472-0.1825-0.55362-0.06118-0.1855-0.12123-0.37173-0.1824-0.55723l-0.05944 3e-3c-0.12306 0.37111-0.24541 0.74212-0.3697 1.1162h-1.2386zm11.673-13.834c0.01328-0.0096 0.02645-0.0192 0.03963-0.0288-0.11704-0.36688-0.23346-0.73437-0.35643-1.1204 0.32099-0.23598 0.63728-0.46949 1.0016-0.73791-0.4657-0.03363-0.86237 0.0078-1.2465-0.02882-0.12899-0.38909-0.24848-0.74756-0.36725-1.1066-0.0192 0.00239-0.0384 0.0048-0.0576 0.00661-0.12061 0.36567-0.24123 0.73194-0.36306 1.1019-0.40626 0.03663-0.79874-0.01861-1.2393 0.03903 0.35888 0.26117 0.67098 0.48879 0.99084 0.72178-0.11939 0.38608-0.23224 0.75172-0.34448 1.1168 0.01563 0.0084 0.03125 0.01621 0.04739 0.02457 0.31445-0.22514 0.62839-0.44977 0.94284-0.67491 0.32701 0.23598 0.64034 0.46174 0.95295 0.68751zm-14.63 13.194c0.32701-0.23846 0.64514-0.47083 0.96317-0.7032-6e-3 -0.01796-0.01195-0.03541-0.01798-0.05337h-1.1924c-0.12899-0.39031-0.2497-0.75657-0.37093-1.1223h-0.048c-0.12419 0.37235-0.24837 0.74459-0.37981 1.1373h-1.1613c-0.0054 0.01683-0.01072 0.03427-0.01675 0.0511 0.31568 0.23237 0.63074 0.46474 0.93978 0.69225-0.12306 0.39506-0.2353 0.75657-0.34805 1.1187 0.01552 0.0077 0.03176 0.01559 0.04739 0.02333 0.31261-0.22576 0.62594-0.4509 0.94274-0.67966 0.32528 0.23299 0.63554 0.45638 0.94642 0.67914 0.01379-0.01084 0.02758-0.02106 0.04198-0.0319-0.11398-0.36688-0.22856-0.73313-0.34621-1.1126zm10.47 0.0011c0.336-0.2462 0.64626-0.47372 0.95592-0.70072-0.0071-0.01982-0.01379-0.04016-0.02094-0.05998h-1.1799c-0.1296-0.39031-0.24899-0.7512-0.36848-1.1121-0.01859 0.0019-0.03656 0.0036-0.05515 0.0055-0.12072 0.36564-0.24133 0.73128-0.37093 1.124h-1.181c-0.0037 0.01683-0.0073 0.03427-0.01083 0.0511 0.3121 0.22638 0.62471 0.45266 0.93794 0.68028-0.06598 0.39568-0.25685 0.73737-0.32518 1.1799 0.36786-0.26303 0.67445-0.4828 0.98175-0.70258 0.32712 0.23598 0.63912 0.46112 0.95122 0.68637 0.01317-0.01022 0.02635-0.02044 0.03962-0.03066-0.11592-0.36688-0.23173-0.73375-0.35408-1.1204zm2.5606-3.8483c-0.06056 0.20119-0.11336 0.38195-0.16922 0.56146-0.05821 0.18488-0.11939 0.36863-0.17944 0.55238 0.01746 0.0096 0.03482 0.01982 0.05219 0.02942 0.31272-0.22452 0.62482-0.44853 0.93682-0.67244 0.34632 0.2143 0.6289 0.48931 1.01 0.69473-0.13205-0.41674-0.24848-0.78485-0.36674-1.1577 0.31333-0.25818 0.65474-0.45452 0.92538-0.76142h-1.1683c-0.12664-0.38246-0.24725-0.74686-0.36848-1.112-0.01746-0.0024-0.03421-0.0054-0.05168-0.0078-0.12419 0.37173-0.24899 0.74335-0.37266 1.1127-0.40984 0.04263-0.80119-0.02044-1.2375 0.04139 0.3505 0.25456 0.65535 0.4762 0.989 0.7193zm-17.484-1.8596c-0.0192-0.0036-0.0384-0.0072-0.05821-0.01136-0.12184 0.36739-0.24368 0.73489-0.36613 1.1036-0.39789 0.05884-0.79088-0.02044-1.2308 0.051 0.35888 0.26365 0.66975 0.49178 0.98247 0.72178-0.12184 0.38608-0.23765 0.75233-0.35295 1.1186 0.01328 0.0096 0.02706 0.01858 0.04024 0.02828 0.31272-0.22463 0.62533-0.44977 0.95357-0.68575 0.31925 0.22999 0.63493 0.45751 0.9506 0.68513l0.03963-0.03541c-0.11581-0.36688-0.23162-0.73375-0.35224-1.1157 0.16984-0.12243 0.33539-0.23299 0.49082-0.35604 0.14768-0.11768 0.33968-0.18612 0.4561-0.39155-0.34019 0-0.64933 0.0019-0.95775-5.16e-4 -0.23101-0.0019-0.23101-0.0042-0.3073-0.23423-0.09661-0.29245-0.192-0.58479-0.288-0.87724zm9.0426-13.411c0.32344 0.23057 0.62952 0.44913 0.93559 0.6677 0.01624-0.010209 0.03237-0.01981 0.04861-0.030019-0.11101-0.36568-0.22141-0.73195-0.33488-1.1054 0.32824-0.24138 0.63615-0.46775 0.94397-0.69411-0.0071-0.018014-0.0144-0.036027-0.02155-0.05404h-1.1697c-0.12838-0.38369-0.2496-0.74756-0.37144-1.1115l-0.05883 0.0036c-0.12122 0.36388-0.24184 0.72715-0.37032 1.112h-1.1672c-6e-3 0.016816-0.01144 0.033622-0.01736 0.051036 0.31557 0.23418 0.63125 0.46835 0.94274 0.69892-0.12245 0.39389-0.2352 0.75776-0.34805 1.1217 0.0144 0.0078 0.0288 0.01501 0.0432 0.022814 0.30669-0.22156 0.61328-0.44373 0.94458-0.68271z" fill="#d5d2b8" stroke-width="1.0268"/>
</svg>
